<?xml version="1.0" encoding="utf-8"?>
<!-- Generator: Adobe Illustrator 27.5.0, SVG Export Plug-In . SVG Version: 6.00 Build 0)  -->
<svg version="1.1" xmlns="http://www.w3.org/2000/svg" xmlns:xlink="http://www.w3.org/1999/xlink" x="0px" y="0px"
	 viewBox="0 0 612 792" style="enable-background:new 0 0 612 792;" xml:space="preserve">
<style type="text/css">
	.st0{fill:#9866FF;}
	.st1{fill:#00B8FF;}
	.st2{fill:#6736E4;}
</style>
<g id="Layer_7">
	<path class="st0" d="M306.11,350.52l-45.57,45.57c-11.66,11.67-27.78,18.88-45.57,18.88c-17.24,0-32.9-6.77-44.46-17.8l-0.07-0.07
		l-2.07-2.07l-0.05-0.05c-11.03-11.56-17.8-27.22-17.8-44.46c0-35.6,28.85-64.46,64.45-64.46c17.6,0,33.57,7.07,45.2,18.52
		l0.73,0.73L306.11,350.52z"/>
</g>
<g id="Layer_5">
	<path class="st1" d="M461.7,350.52c0,17.24-6.77,32.9-17.8,44.46l-0.26,0.26l-1.56,1.57l-0.09,0.09l-0.28,0.27
		c-11.56,11.03-27.22,17.8-44.46,17.8c-17.79,0-33.91-7.21-45.57-18.88l-45.57-45.57l45.94-45.94c11.63-11.45,27.6-18.52,45.2-18.52
		C432.85,286.06,461.7,314.92,461.7,350.52z"/>
</g>
<g id="Layer_4">
	<path class="st2" d="M441.71,397.17l-44.09,44.11l-0.38,0.37l-46.48,46.48c-24.66,24.66-64.64,24.66-89.3,0l-42.63-42.63
		l-3.85-3.85l-1.1-1.1l-43.37-43.38c11.56,11.03,27.22,17.8,44.46,17.8c17.79,0,33.91-7.21,45.57-18.88l45.57-45.57l45.57,45.57
		c11.66,11.67,27.78,18.88,45.57,18.88C414.49,414.97,430.15,408.2,441.71,397.17z"/>
</g>
</svg>
